# xmcd CD database file
#
# Track frame offsets:
#	150
#	14915
#	28805
#	42730
#	49092
#	63300
#	76362
#	87420
#	98735
#	114205
#	130235
#	139080
#	155067
#
# Disc length: 2245 seconds
#
# Revision: 1
# Processed by: cddbd v1.5.1PL0 Copyright (c) Steve Scherf et al.
# Submitted via: CDex 1.51
#
DISCID=b408c30d
DTITLE=田蔦道生 - Guitar Solo in 玉置浩二
DYEAR=1997
DGENRE=Instrumental
TTITLE0=MR. LONELY
TTITLE1=ラストショー
TTITLE2=風にさらわれて
TTITLE3=おやすみチャチ
TTITLE4=しあわせのランプ
TTITLE5=元気な町
TTITLE6=氷点
TTITLE7=大切な時間
TTITLE8=田園
TTITLE9=STAR
TTITLE10=愛を伝えて
TTITLE11=あの時代に・・・
TTITLE12=メロディー
EXTD=YEAR: 1997
EXTT0=
EXTT1=
EXTT2=
EXTT3=
EXTT4=
EXTT5=
EXTT6=
EXTT7=
EXTT8=
EXTT9=
EXTT10=
EXTT11=
EXTT12=
PLAYORDER=
